STARTFONT 2.1
COMMENT
COMMENT Converted from OpenType font "Context_Ultra_Condensed.ttf" by "otf2bdf 3.0".
COMMENT
FONT -FreeType-Context Ultra Condensed SSi-Medium-R-Normal--22-160-100-100-P-69-ISO10646-1
SIZE 16 100 100
FONTBOUNDINGBOX 26 26 -4 -5
STARTPROPERTIES 19
FOUNDRY "FreeType"
FAMILY_NAME "Context Ultra Condensed SSi"
WEIGHT_NAME "Medium"
SLANT "R"
SETWIDTH_NAME "Normal"
ADD_STYLE_NAME ""
PIXEL_SIZE 22
POINT_SIZE 160
RESOLUTION_X 100
RESOLUTION_Y 100
SPACING "P"
AVERAGE_WIDTH 69
CHARSET_REGISTRY "ISO10646"
CHARSET_ENCODING "1"
FONT_ASCENT 16
FONT_DESCENT 3
COPYRIGHT "Copyright c 1992 Southern Software, Inc. All Rights Reserved"
_OTF_FONTFILE "Context_Ultra_Condensed.ttf"
_OTF_PSNAME "ContextUltraCondensedSSiUltraCondensed"
ENDPROPERTIES
CHARS 230
STARTCHAR 0020
ENCODING 32
SWIDTH 180 0
DWIDTH 4 0
BBX 0 0 0 0
BITMAP
ENDCHAR
STARTCHAR 0021
ENCODING 33
SWIDTH 225 0
DWIDTH 5 0
BBX 2 16 1 0
BITMAP
C0
C0
C0
C0
C0
C0
C0
C0
C0
C0
C0
C0
C0
00
C0
C0
ENDCHAR
STARTCHAR 0022
ENCODING 34
SWIDTH 315 0
DWIDTH 7 0
BBX 5 6 1 10
BITMAP
D8
D8
D8
D8
D8
D8
ENDCHAR
STARTCHAR 0023
ENCODING 35
SWIDTH 315 0
DWIDTH 7 0
BBX 9 16 -1 0
BITMAP
1900
1100
1300
1300
1300
7F80
7F80
3200
3200
FF80
FF80
2600
2600
2600
6600
6400
ENDCHAR
STARTCHAR 0024
ENCODING 36
SWIDTH 315 0
DWIDTH 7 0
BBX 6 18 1 -1
BITMAP
20
78
FC
DC
DC
DC
FC
E0
70
38
38
DC
DC
DC
DC
FC
F8
20
ENDCHAR
STARTCHAR 0025
ENCODING 37
SWIDTH 495 0
DWIDTH 11 0
BBX 11 16 0 0
BITMAP
7180
7900
D900
DB00
DA00
DA00
DA00
FDC0
77E0
0760
0B60
0B60
0B60
1360
13E0
31C0
ENDCHAR
STARTCHAR 0026
ENCODING 38
SWIDTH 405 0
DWIDTH 9 0
BBX 7 16 1 0
BITMAP
78
FC
CC
CC
CC
F8
78
F0
F6
F6
DE
DE
DE
CE
FE
7E
ENDCHAR
STARTCHAR 0027
ENCODING 39
SWIDTH 225 0
DWIDTH 5 0
BBX 2 6 1 10
BITMAP
C0
C0
C0
C0
C0
C0
ENDCHAR
STARTCHAR 0028
ENCODING 40
SWIDTH 180 0
DWIDTH 4 0
BBX 4 18 0 -2
BITMAP
30
30
60
60
60
60
C0
C0
C0
C0
C0
C0
60
60
60
60
20
30
ENDCHAR
STARTCHAR 0029
ENCODING 41
SWIDTH 180 0
DWIDTH 4 0
BBX 4 18 -1 -2
BITMAP
60
60
20
30
30
30
30
30
30
30
30
30
30
30
30
30
60
E0
ENDCHAR
STARTCHAR 002A
ENCODING 42
SWIDTH 315 0
DWIDTH 7 0
BBX 7 6 0 10
BITMAP
10
94
7E
38
28
4C
ENDCHAR
STARTCHAR 002B
ENCODING 43
SWIDTH 495 0
DWIDTH 11 0
BBX 11 11 0 1
BITMAP
0600
0600
0600
0600
0600
FFE0
FFE0
0600
0600
0600
0600
ENDCHAR
STARTCHAR 002C
ENCODING 44
SWIDTH 180 0
DWIDTH 4 0
BBX 3 5 0 -3
BITMAP
60
60
40
40
C0
ENDCHAR
STARTCHAR 002D
ENCODING 45
SWIDTH 180 0
DWIDTH 4 0
BBX 3 2 0 6
BITMAP
E0
E0
ENDCHAR
STARTCHAR 002E
ENCODING 46
SWIDTH 180 0
DWIDTH 4 0
BBX 2 2 1 0
BITMAP
C0
C0
ENDCHAR
STARTCHAR 002F
ENCODING 47
SWIDTH 270 0
DWIDTH 6 0
BBX 6 16 0 0
BITMAP
04
04
0C
08
08
18
10
10
20
20
20
40
40
40
80
80
ENDCHAR
STARTCHAR 0030
ENCODING 48
SWIDTH 315 0
DWIDTH 7 0
BBX 6 16 1 0
BITMAP
78
FC
DC
DC
DC
DC
DC
DC
DC
DC
DC
DC
DC
DC
FC
78
ENDCHAR
STARTCHAR 0031
ENCODING 49
SWIDTH 315 0
DWIDTH 7 0
BBX 4 16 1 0
BITMAP
30
30
F0
F0
30
30
30
30
30
30
30
30
30
30
30
30
ENDCHAR
STARTCHAR 0032
ENCODING 50
SWIDTH 315 0
DWIDTH 7 0
BBX 6 16 1 0
BITMAP
78
F8
DC
DC
DC
DC
18
38
30
70
60
E0
C0
C0
FC
FC
ENDCHAR
STARTCHAR 0033
ENCODING 51
SWIDTH 315 0
DWIDTH 7 0
BBX 6 16 1 0
BITMAP
78
FC
DC
DC
DC
DC
1C
38
38
1C
DC
DC
DC
DC
FC
78
ENDCHAR
STARTCHAR 0034
ENCODING 52
SWIDTH 315 0
DWIDTH 7 0
BBX 7 16 0 0
BITMAP
1C
1C
3C
3C
3C
6C
6C
6C
6C
CC
FE
FE
0C
0C
0C
0C
ENDCHAR
STARTCHAR 0035
ENCODING 53
SWIDTH 315 0
DWIDTH 7 0
BBX 6 16 1 0
BITMAP
FC
FC
C0
C0
C0
C0
F8
FC
DC
1C
DC
DC
DC
DC
F8
78
ENDCHAR
STARTCHAR 0036
ENCODING 54
SWIDTH 315 0
DWIDTH 7 0
BBX 6 16 1 0
BITMAP
78
FC
DC
DC
DC
C0
F8
FC
DC
DC
DC
DC
DC
DC
FC
78
ENDCHAR
STARTCHAR 0037
ENCODING 55
SWIDTH 315 0
DWIDTH 7 0
BBX 7 16 0 0
BITMAP
FE
FE
0E
0E
0C
0C
1C
1C
18
18
38
38
30
30
70
70
ENDCHAR
STARTCHAR 0038
ENCODING 56
SWIDTH 315 0
DWIDTH 7 0
BBX 6 16 1 0
BITMAP
78
F8
DC
DC
DC
DC
DC
F8
F8
DC
DC
DC
DC
DC
FC
78
ENDCHAR
STARTCHAR 0039
ENCODING 57
SWIDTH 315 0
DWIDTH 7 0
BBX 6 16 1 0
BITMAP
78
FC
DC
DC
DC
DC
DC
DC
DC
FC
FC
DC
DC
DC
F8
78
ENDCHAR
STARTCHAR 003A
ENCODING 58
SWIDTH 180 0
DWIDTH 4 0
BBX 2 11 1 0
BITMAP
C0
C0
00
00
00
00
00
00
00
C0
C0
ENDCHAR
STARTCHAR 003B
ENCODING 59
SWIDTH 180 0
DWIDTH 4 0
BBX 3 14 0 -3
BITMAP
60
60
00
00
00
00
00
00
00
60
60
40
C0
C0
ENDCHAR
STARTCHAR 003C
ENCODING 60
SWIDTH 495 0
DWIDTH 11 0
BBX 9 10 1 1
BITMAP
0180
0780
1E00
F000
C000
F000
3C00
0700
0180
0080
ENDCHAR
STARTCHAR 003D
ENCODING 61
SWIDTH 495 0
DWIDTH 11 0
BBX 11 7 0 3
BITMAP
FFE0
FFE0
0000
0000
0000
FFE0
FFE0
ENDCHAR
STARTCHAR 003E
ENCODING 62
SWIDTH 495 0
DWIDTH 11 0
BBX 9 11 1 0
BITMAP
8000
C000
7000
1E00
0780
0180
0780
1E00
F000
C000
8000
ENDCHAR
STARTCHAR 003F
ENCODING 63
SWIDTH 315 0
DWIDTH 7 0
BBX 5 16 1 0
BITMAP
78
F8
D8
D8
D8
D8
18
38
30
30
30
30
30
00
30
30
ENDCHAR
STARTCHAR 0040
ENCODING 64
SWIDTH 810 0
DWIDTH 18 0
BBX 16 16 1 0
BITMAP
07E0
1FF8
3C1C
73DE
67F2
CE73
CC33
DC33
D823
D862
DCE6
6FFC
7770
3C0E
1FF8
07E0
ENDCHAR
STARTCHAR 0041
ENCODING 65
SWIDTH 315 0
DWIDTH 7 0
BBX 7 16 0 0
BITMAP
3C
3C
3C
3C
6C
6C
6C
6C
6C
6E
7E
7E
6E
E6
C6
C6
ENDCHAR
STARTCHAR 0042
ENCODING 66
SWIDTH 315 0
DWIDTH 7 0
BBX 6 16 1 0
BITMAP
F8
F8
DC
DC
DC
DC
DC
F8
F8
DC
DC
DC
DC
DC
F8
F8
ENDCHAR
STARTCHAR 0043
ENCODING 67
SWIDTH 315 0
DWIDTH 7 0
BBX 6 16 1 0
BITMAP
78
FC
DC
DC
DC
DC
C0
C0
C0
C0
DC
DC
DC
DC
FC
78
ENDCHAR
STARTCHAR 0044
ENCODING 68
SWIDTH 315 0
DWIDTH 7 0
BBX 6 16 1 0
BITMAP
F8
F8
DC
DC
DC
DC
DC
DC
DC
DC
DC
DC
DC
DC
F8
F8
ENDCHAR
STARTCHAR 0045
ENCODING 69
SWIDTH 270 0
DWIDTH 6 0
BBX 5 16 1 0
BITMAP
F8
F8
C0
C0
C0
C0
F8
F8
C0
C0
C0
C0
C0
C0
F8
F8
ENDCHAR
STARTCHAR 0046
ENCODING 70
SWIDTH 270 0
DWIDTH 6 0
BBX 5 16 1 0
BITMAP
F8
F8
C0
C0
C0
C0
F8
F8
C0
C0
C0
C0
C0
C0
C0
C0
ENDCHAR
STARTCHAR 0047
ENCODING 71
SWIDTH 315 0
DWIDTH 7 0
BBX 6 16 1 0
BITMAP
78
FC
DC
DC
DC
DC
C0
C0
FC
FC
DC
DC
DC
DC
FC
74
ENDCHAR
STARTCHAR 0048
ENCODING 72
SWIDTH 315 0
DWIDTH 7 0
BBX 6 16 1 0
BITMAP
DC
DC
DC
DC
DC
DC
FC
FC
DC
DC
DC
DC
DC
DC
DC
DC
ENDCHAR
STARTCHAR 0049
ENCODING 73
SWIDTH 180 0
DWIDTH 4 0
BBX 2 16 1 0
BITMAP
C0
C0
C0
C0
C0
C0
C0
C0
C0
C0
C0
C0
C0
C0
C0
C0
ENDCHAR
STARTCHAR 004A
ENCODING 74
SWIDTH 315 0
DWIDTH 7 0
BBX 6 16 1 0
BITMAP
1C
1C
1C
1C
1C
1C
1C
1C
1C
1C
DC
DC
DC
DC
F8
78
ENDCHAR
STARTCHAR 004B
ENCODING 75
SWIDTH 315 0
DWIDTH 7 0
BBX 6 16 1 0
BITMAP
CC
CC
DC
D8
D8
D8
F8
F0
F8
F8
D8
D8
DC
DC
DC
CC
ENDCHAR
STARTCHAR 004C
ENCODING 76
SWIDTH 270 0
DWIDTH 6 0
BBX 5 16 1 0
BITMAP
C0
C0
C0
C0
C0
C0
C0
C0
C0
C0
C0
C0
C0
C0
F8
F8
ENDCHAR
STARTCHAR 004D
ENCODING 77
SWIDTH 495 0
DWIDTH 11 0
BBX 9 16 1 0
BITMAP
E780
E780
F780
F780
F780
F780
F780
F580
F580
D580
D580
D580
DD80
DD80
DD80
D980
ENDCHAR
STARTCHAR 004E
ENCODING 78
SWIDTH 405 0
DWIDTH 9 0
BBX 7 16 1 0
BITMAP
E6
E6
F6
F6
F6
F6
F6
F6
FE
DE
DE
DE
DE
DE
DE
DE
ENDCHAR
STARTCHAR 004F
ENCODING 79
SWIDTH 315 0
DWIDTH 7 0
BBX 6 16 1 0
BITMAP
78
FC
DC
DC
DC
DC
DC
DC
DC
DC
DC
DC
DC
DC
FC
78
ENDCHAR
STARTCHAR 0050
ENCODING 80
SWIDTH 315 0
DWIDTH 7 0
BBX 6 16 1 0
BITMAP
F8
F8
DC
DC
DC
DC
DC
DC
F8
F0
C0
C0
C0
C0
C0
C0
ENDCHAR
STARTCHAR 0051
ENCODING 81
SWIDTH 315 0
DWIDTH 7 0
BBX 6 18 1 -2
BITMAP
78
FC
DC
DC
DC
DC
DC
DC
DC
DC
DC
DC
DC
DC
FC
78
1C
0C
ENDCHAR
STARTCHAR 0052
ENCODING 82
SWIDTH 315 0
DWIDTH 7 0
BBX 6 16 1 0
BITMAP
F8
FC
DC
DC
DC
DC
DC
F8
F8
DC
DC
DC
DC
DC
DC
CC
ENDCHAR
STARTCHAR 0053
ENCODING 83
SWIDTH 315 0
DWIDTH 7 0
BBX 6 16 1 0
BITMAP
78
FC
DC
DC
DC
DC
E0
70
38
18
DC
DC
DC
DC
FC
78
ENDCHAR
STARTCHAR 0054
ENCODING 84
SWIDTH 315 0
DWIDTH 7 0
BBX 7 16 0 0
BITMAP
FE
FE
38
38
38
38
38
38
38
38
38
38
38
38
38
38
ENDCHAR
STARTCHAR 0055
ENCODING 85
SWIDTH 315 0
DWIDTH 7 0
BBX 6 16 1 0
BITMAP
DC
DC
DC
DC
DC
DC
DC
DC
DC
DC
DC
DC
DC
DC
FC
78
ENDCHAR
STARTCHAR 0056
ENCODING 86
SWIDTH 315 0
DWIDTH 7 0
BBX 7 16 0 0
BITMAP
E6
E6
E6
E6
6E
6E
6E
6C
6C
6C
7C
7C
7C
3C
3C
38
ENDCHAR
STARTCHAR 0057
ENCODING 87
SWIDTH 495 0
DWIDTH 11 0
BBX 10 16 0 0
BITMAP
EEC0
EEC0
EEC0
6EC0
6AC0
6AC0
6AC0
6AC0
6AC0
6BC0
6B80
7B80
7B80
7B80
3B80
3380
ENDCHAR
STARTCHAR 0058
ENCODING 88
SWIDTH 315 0
DWIDTH 7 0
BBX 7 16 0 0
BITMAP
E6
66
6E
6C
7C
7C
3C
38
3C
3C
6C
6C
6E
6E
E6
C6
ENDCHAR
STARTCHAR 0059
ENCODING 89
SWIDTH 315 0
DWIDTH 7 0
BBX 7 16 0 0
BITMAP
E6
E6
66
6C
6C
7C
3C
38
38
38
38
38
38
38
38
38
ENDCHAR
STARTCHAR 005A
ENCODING 90
SWIDTH 270 0
DWIDTH 6 0
BBX 5 16 0 0
BITMAP
F8
F8
18
18
38
38
30
30
30
70
60
60
60
E0
F8
F8
ENDCHAR
STARTCHAR 005B
ENCODING 91
SWIDTH 225 0
DWIDTH 5 0
BBX 4 18 1 -2
BITMAP
F0
F0
C0
C0
C0
C0
C0
C0
C0
C0
C0
C0
C0
C0
C0
C0
F0
F0
ENDCHAR
STARTCHAR 005C
ENCODING 92
SWIDTH 270 0
DWIDTH 6 0
BBX 8 16 -1 0
BITMAP
80
C0
40
60
20
30
10
10
08
08
04
04
02
02
03
01
ENDCHAR
STARTCHAR 005D
ENCODING 93
SWIDTH 225 0
DWIDTH 5 0
BBX 4 18 0 -2
BITMAP
F0
F0
30
30
30
30
30
30
30
30
30
30
30
30
30
30
F0
F0
ENDCHAR
STARTCHAR 005E
ENCODING 94
SWIDTH 495 0
DWIDTH 11 0
BBX 11 9 0 7
BITMAP
0E00
0E00
1B00
1B00
3180
3180
60C0
60C0
E060
ENDCHAR
STARTCHAR 005F
ENCODING 95
SWIDTH 495 0
DWIDTH 11 0
BBX 11 2 0 -2
BITMAP
FFE0
FFE0
ENDCHAR
STARTCHAR 0060
ENCODING 96
SWIDTH 135 0
DWIDTH 3 0
BBX 4 4 -1 14
BITMAP
C0
60
20
10
ENDCHAR
STARTCHAR 0061
ENCODING 97
SWIDTH 270 0
DWIDTH 6 0
BBX 6 13 0 0
BITMAP
78
7C
EC
FC
FC
3C
7C
EC
EC
EC
EC
FC
6C
ENDCHAR
STARTCHAR 0062
ENCODING 98
SWIDTH 270 0
DWIDTH 6 0
BBX 6 16 0 0
BITMAP
E0
E0
E0
F8
FC
EC
EC
EC
EC
EC
EC
EC
EC
EC
FC
F8
ENDCHAR
STARTCHAR 0063
ENCODING 99
SWIDTH 270 0
DWIDTH 6 0
BBX 6 13 0 0
BITMAP
78
7C
EC
EC
EC
E0
E0
E0
EC
EC
EC
7C
78
ENDCHAR
STARTCHAR 0064
ENCODING 100
SWIDTH 270 0
DWIDTH 6 0
BBX 6 16 0 0
BITMAP
0C
0C
0C
6C
FC
EC
EC
EC
EC
EC
EC
EC
EC
EC
FC
6C
ENDCHAR
STARTCHAR 0065
ENCODING 101
SWIDTH 270 0
DWIDTH 6 0
BBX 6 13 0 0
BITMAP
78
7C
EC
EC
EC
FC
FC
E0
EC
EC
EC
7C
78
ENDCHAR
STARTCHAR 0066
ENCODING 102
SWIDTH 180 0
DWIDTH 4 0
BBX 4 16 0 0
BITMAP
70
70
60
F0
F0
60
60
60
60
60
60
60
60
60
60
60
ENDCHAR
STARTCHAR 0067
ENCODING 103
SWIDTH 270 0
DWIDTH 6 0
BBX 6 16 0 -3
BITMAP
6C
FC
EC
EC
EC
EC
EC
EC
EC
FC
7C
0C
EC
EC
7C
78
ENDCHAR
STARTCHAR 0068
ENCODING 104
SWIDTH 270 0
DWIDTH 6 0
BBX 6 16 0 0
BITMAP
E0
E0
E0
F8
FC
EC
EC
EC
EC
EC
EC
EC
EC
EC
EC
EC
ENDCHAR
STARTCHAR 0069
ENCODING 105
SWIDTH 135 0
DWIDTH 3 0
BBX 2 16 1 0
BITMAP
C0
C0
00
C0
C0
C0
C0
C0
C0
C0
C0
C0
C0
C0
C0
C0
ENDCHAR
STARTCHAR 006A
ENCODING 106
SWIDTH 135 0
DWIDTH 3 0
BBX 3 19 0 -3
BITMAP
60
60
00
60
60
60
60
60
60
60
60
60
60
60
60
60
60
E0
C0
ENDCHAR
STARTCHAR 006B
ENCODING 107
SWIDTH 270 0
DWIDTH 6 0
BBX 6 16 0 0
BITMAP
E0
E0
E0
EC
EC
F8
F8
F8
F8
F8
F8
F8
F8
FC
EC
EC
ENDCHAR
STARTCHAR 006C
ENCODING 108
SWIDTH 135 0
DWIDTH 3 0
BBX 2 16 1 0
BITMAP
C0
C0
C0
C0
C0
C0
C0
C0
C0
C0
C0
C0
C0
C0
C0
C0
ENDCHAR
STARTCHAR 006D
ENCODING 109
SWIDTH 405 0
DWIDTH 9 0
BBX 8 13 1 0
BITMAP
F7
FF
DB
DB
DB
DB
DB
DB
DB
DB
DB
DB
DB
ENDCHAR
STARTCHAR 006E
ENCODING 110
SWIDTH 270 0
DWIDTH 6 0
BBX 6 13 0 0
BITMAP
F8
FC
EC
EC
EC
EC
EC
EC
EC
EC
EC
EC
EC
ENDCHAR
STARTCHAR 006F
ENCODING 111
SWIDTH 270 0
DWIDTH 6 0
BBX 6 13 0 0
BITMAP
78
7C
EC
EC
EC
EC
EC
EC
EC
EC
EC
7C
78
ENDCHAR
STARTCHAR 0070
ENCODING 112
SWIDTH 270 0
DWIDTH 6 0
BBX 6 16 0 -3
BITMAP
F8
FC
EC
EC
EC
EC
EC
EC
EC
EC
EC
FC
F8
E0
E0
E0
ENDCHAR
STARTCHAR 0071
ENCODING 113
SWIDTH 270 0
DWIDTH 6 0
BBX 6 16 0 -3
BITMAP
6C
FC
EC
EC
EC
EC
EC
EC
EC
EC
EC
FC
6C
0C
0C
0C
ENDCHAR
STARTCHAR 0072
ENCODING 114
SWIDTH 270 0
DWIDTH 6 0
BBX 6 13 0 0
BITMAP
F8
FC
EC
EC
EC
EC
EC
E0
E0
E0
E0
E0
E0
ENDCHAR
STARTCHAR 0073
ENCODING 115
SWIDTH 270 0
DWIDTH 6 0
BBX 6 13 0 0
BITMAP
78
7C
EC
EC
6C
70
38
1C
FC
EC
EC
7C
78
ENDCHAR
STARTCHAR 0074
ENCODING 116
SWIDTH 180 0
DWIDTH 4 0
BBX 4 15 0 0
BITMAP
60
60
F0
F0
60
60
60
60
60
60
60
60
60
70
70
ENDCHAR
STARTCHAR 0075
ENCODING 117
SWIDTH 270 0
DWIDTH 6 0
BBX 6 13 0 0
BITMAP
EC
EC
EC
EC
EC
EC
EC
EC
EC
EC
EC
FC
6C
ENDCHAR
STARTCHAR 0076
ENCODING 118
SWIDTH 270 0
DWIDTH 6 0
BBX 6 13 0 0
BITMAP
CC
CC
CC
EC
7C
78
78
78
78
78
78
38
30
ENDCHAR
STARTCHAR 0077
ENCODING 119
SWIDTH 450 0
DWIDTH 10 0
BBX 10 13 0 0
BITMAP
CCC0
CDC0
CD80
FD80
7D80
7F80
7F80
7F80
7F80
7780
7380
7300
7300
ENDCHAR
STARTCHAR 0078
ENCODING 120
SWIDTH 270 0
DWIDTH 6 0
BBX 6 13 0 0
BITMAP
D8
F8
78
78
78
78
70
78
78
78
58
D8
DC
ENDCHAR
STARTCHAR 0079
ENCODING 121
SWIDTH 270 0
DWIDTH 6 0
BBX 6 16 0 -3
BITMAP
CC
CC
CC
6C
78
78
78
78
78
78
38
30
30
30
70
70
ENDCHAR
STARTCHAR 007A
ENCODING 122
SWIDTH 225 0
DWIDTH 5 0
BBX 5 13 0 0
BITMAP
F8
F8
38
30
30
30
60
60
60
E0
C0
F8
F8
ENDCHAR
STARTCHAR 007B
ENCODING 123
SWIDTH 315 0
DWIDTH 7 0
BBX 6 18 1 -2
BITMAP
1C
3C
30
30
30
30
30
70
E0
E0
70
30
30
30
30
30
3C
1C
ENDCHAR
STARTCHAR 007C
ENCODING 124
SWIDTH 225 0
DWIDTH 5 0
BBX 2 16 1 0
BITMAP
C0
C0
C0
C0
C0
C0
C0
C0
C0
C0
C0
C0
C0
C0
C0
C0
ENDCHAR
STARTCHAR 007D
ENCODING 125
SWIDTH 315 0
DWIDTH 7 0
BBX 7 18 0 -2
BITMAP
F0
F0
18
18
18
18
18
18
0E
0E
18
18
18
18
18
18
F0
F0
ENDCHAR
STARTCHAR 007E
ENCODING 126
SWIDTH 495 0
DWIDTH 11 0
BBX 11 3 0 5
BITMAP
7C40
FFE0
43C0
ENDCHAR
STARTCHAR 009D
ENCODING 157
SWIDTH 900 0
DWIDTH 20 0
BBX 20 16 0 0
BITMAP
0071C0
01F3E0
039620
061840
0C7090
09F710
092000
083000
041040
060840
228880
C30580
830500
C70D00
FDFA00
78F200
ENDCHAR
STARTCHAR 00A0
ENCODING 160
SWIDTH 765 0
DWIDTH 17 0
BBX 0 0 0 0
BITMAP
ENDCHAR
STARTCHAR 00A1
ENCODING 161
SWIDTH 225 0
DWIDTH 5 0
BBX 2 15 1 -2
BITMAP
C0
C0
00
C0
C0
C0
C0
C0
C0
C0
C0
C0
C0
C0
C0
ENDCHAR
STARTCHAR 00A2
ENCODING 162
SWIDTH 315 0
DWIDTH 7 0
BBX 5 17 1 -2
BITMAP
08
18
78
F8
D8
D8
D8
C0
C0
C0
D8
D8
D8
F8
78
40
80
ENDCHAR
STARTCHAR 00A3
ENCODING 163
SWIDTH 315 0
DWIDTH 7 0
BBX 7 16 0 0
BITMAP
3C
7E
66
66
60
60
70
F8
F8
30
30
30
70
60
FE
7E
ENDCHAR
STARTCHAR 00A4
ENCODING 164
SWIDTH 315 0
DWIDTH 7 0
BBX 6 6 1 6
BITMAP
F4
88
84
84
88
F4
ENDCHAR
STARTCHAR 00A5
ENCODING 165
SWIDTH 315 0
DWIDTH 7 0
BBX 7 16 0 0
BITMAP
E6
E6
66
6C
6C
7C
3C
FE
FE
7C
7C
38
38
38
38
38
ENDCHAR
STARTCHAR 00A6
ENCODING 166
SWIDTH 225 0
DWIDTH 5 0
BBX 2 16 1 0
BITMAP
C0
C0
C0
C0
C0
C0
00
00
00
00
C0
C0
C0
C0
C0
C0
ENDCHAR
STARTCHAR 00A7
ENCODING 167
SWIDTH 315 0
DWIDTH 7 0
BBX 6 19 1 -3
BITMAP
78
F8
D8
C8
C0
60
70
D8
9C
CC
CC
7C
38
18
18
D8
D8
F8
70
ENDCHAR
STARTCHAR 00A8
ENCODING 168
SWIDTH 135 0
DWIDTH 3 0
BBX 5 2 -1 15
BITMAP
D8
D8
ENDCHAR
STARTCHAR 00A9
ENCODING 169
SWIDTH 810 0
DWIDTH 18 0
BBX 17 16 0 0
BITMAP
03F000
0FFC00
1C1E00
39E700
73F380
661980
661980
EC0180
EC0180
661980
671980
73F300
39E700
1C0E00
0FFC00
03F000
ENDCHAR
STARTCHAR 00AA
ENCODING 170
SWIDTH 180 0
DWIDTH 4 0
BBX 4 8 0 8
BITMAP
E0
F0
B0
F0
F0
B0
F0
70
ENDCHAR
STARTCHAR 00AB
ENCODING 171
SWIDTH 315 0
DWIDTH 7 0
BBX 7 9 0 2
BITMAP
22
26
66
CC
C8
CC
6E
26
22
ENDCHAR
STARTCHAR 00AC
ENCODING 172
SWIDTH 495 0
DWIDTH 11 0
BBX 11 7 0 3
BITMAP
FFE0
FFE0
0060
0060
0060
0060
0060
ENDCHAR
STARTCHAR 00AE
ENCODING 174
SWIDTH 810 0
DWIDTH 18 0
BBX 17 16 0 0
BITMAP
03F000
0FFC00
1C1E00
3BE700
73F380
621980
621980
E3F180
E3F180
626180
623180
721300
380F00
1C0E00
0FFC00
03F000
ENDCHAR
STARTCHAR 00AF
ENCODING 175
SWIDTH 135 0
DWIDTH 3 0
BBX 5 2 -1 15
BITMAP
F8
F8
ENDCHAR
STARTCHAR 00B0
ENCODING 176
SWIDTH 405 0
DWIDTH 9 0
BBX 7 7 1 9
BITMAP
38
7C
C6
82
C6
7C
38
ENDCHAR
STARTCHAR 00B1
ENCODING 177
SWIDTH 495 0
DWIDTH 11 0
BBX 11 11 0 1
BITMAP
0600
0600
0600
FFE0
FFE0
0600
0600
0600
0000
FFE0
FFE0
ENDCHAR
STARTCHAR 00B2
ENCODING 178
SWIDTH 180 0
DWIDTH 4 0
BBX 4 10 0 6
BITMAP
70
D0
D0
10
30
20
40
40
F0
F0
ENDCHAR
STARTCHAR 00B3
ENCODING 179
SWIDTH 180 0
DWIDTH 4 0
BBX 4 10 0 6
BITMAP
70
F0
D0
D0
30
30
D0
D0
D0
70
ENDCHAR
STARTCHAR 00B4
ENCODING 180
SWIDTH 135 0
DWIDTH 3 0
BBX 4 4 0 14
BITMAP
30
60
40
C0
ENDCHAR
STARTCHAR 00B5
ENCODING 181
SWIDTH 270 0
DWIDTH 6 0
BBX 6 16 0 -3
BITMAP
EC
EC
EC
EC
EC
EC
EC
EC
EC
EC
EC
FC
EC
E0
E0
E0
ENDCHAR
STARTCHAR 00B6
ENCODING 182
SWIDTH 585 0
DWIDTH 13 0
BBX 12 20 1 -4
BITMAP
3FF0
FFF0
FCC0
FCC0
FCC0
FCC0
FCC0
7CC0
0CC0
0CC0
0CC0
0CC0
0CC0
0CC0
0CC0
0CC0
0CC0
0CC0
0CC0
0CC0
ENDCHAR
STARTCHAR 00B8
ENCODING 184
SWIDTH 135 0
DWIDTH 3 0
BBX 5 5 -1 -5
BITMAP
20
30
18
18
F0
ENDCHAR
STARTCHAR 00B9
ENCODING 185
SWIDTH 180 0
DWIDTH 4 0
BBX 3 10 0 6
BITMAP
20
E0
20
20
20
20
20
20
20
20
ENDCHAR
STARTCHAR 00BA
ENCODING 186
SWIDTH 180 0
DWIDTH 4 0
BBX 4 8 0 8
BITMAP
E0
B0
B0
B0
B0
B0
F0
60
ENDCHAR
STARTCHAR 00BB
ENCODING 187
SWIDTH 315 0
DWIDTH 7 0
BBX 7 9 0 2
BITMAP
88
CC
EC
66
22
66
EE
CC
88
ENDCHAR
STARTCHAR 00BC
ENCODING 188
SWIDTH 495 0
DWIDTH 11 0
BBX 10 16 1 0
BITMAP
4200
C200
4600
4400
4400
4C00
4980
4B80
4B80
5380
1780
1580
27C0
27C0
2180
4180
ENDCHAR
STARTCHAR 00BD
ENCODING 189
SWIDTH 495 0
DWIDTH 11 0
BBX 11 16 0 0
BITMAP
2100
E100
2200
2200
2200
2400
2400
25C0
2960
2960
0840
18C0
1080
1100
31E0
21E0
ENDCHAR
STARTCHAR 00BE
ENCODING 190
SWIDTH 495 0
DWIDTH 11 0
BBX 11 16 0 0
BITMAP
7080
F100
D100
D100
3200
1200
D2C0
D6C0
D540
7540
0D40
0B40
0BE0
0BE0
1040
1040
ENDCHAR
STARTCHAR 00BF
ENCODING 191
SWIDTH 315 0
DWIDTH 7 0
BBX 5 16 1 -3
BITMAP
30
30
00
30
30
30
30
70
60
E0
D8
D8
D8
D8
F8
78
ENDCHAR
STARTCHAR 00C0
ENCODING 192
SWIDTH 315 0
DWIDTH 7 0
BBX 7 21 0 0
BITMAP
60
30
10
08
00
3C
3C
3C
3C
6C
6C
6C
6C
6C
6E
7E
7E
6E
E6
C6
C6
ENDCHAR
STARTCHAR 00C1
ENCODING 193
SWIDTH 315 0
DWIDTH 7 0
BBX 7 21 0 0
BITMAP
0C
08
18
10
20
3C
3C
3C
3C
6C
6C
6C
6C
6C
6E
7E
7E
6E
E6
C6
C6
ENDCHAR
STARTCHAR 00C2
ENCODING 194
SWIDTH 315 0
DWIDTH 7 0
BBX 7 21 0 0
BITMAP
18
38
2C
44
02
3C
3C
3C
3C
6C
6C
6C
6C
6C
6E
7E
7E
6E
E6
C6
C6
ENDCHAR
STARTCHAR 00C3
ENCODING 195
SWIDTH 315 0
DWIDTH 7 0
BBX 7 20 0 0
BITMAP
32
7C
40
00
3C
3C
3C
3C
6C
6C
6C
6C
6C
6E
7E
7E
6E
E6
C6
C6
ENDCHAR
STARTCHAR 00C4
ENCODING 196
SWIDTH 315 0
DWIDTH 7 0
BBX 7 20 0 0
BITMAP
6C
6C
00
00
3C
3C
3C
3C
6C
6C
6C
6C
6C
6E
7E
7E
66
E6
C6
C6
ENDCHAR
STARTCHAR 00C5
ENCODING 197
SWIDTH 315 0
DWIDTH 7 0
BBX 7 21 0 0
BITMAP
38
2C
2C
38
00
3C
3C
3C
3C
6C
6C
6C
6C
6C
6E
7E
7E
66
E6
C6
C6
ENDCHAR
STARTCHAR 00C6
ENCODING 198
SWIDTH 495 0
DWIDTH 11 0
BBX 10 16 0 0
BITMAP
1FC0
1FC0
1E00
1E00
3600
3600
37C0
37C0
3600
7600
7E00
7E00
6600
6600
E7C0
C7C0
ENDCHAR
STARTCHAR 00C7
ENCODING 199
SWIDTH 315 0
DWIDTH 7 0
BBX 6 21 1 -5
BITMAP
78
FC
DC
DC
DC
DC
C0
C0
C0
C0
DC
DC
DC
DC
FC
78
20
38
18
18
F0
ENDCHAR
STARTCHAR 00C8
ENCODING 200
SWIDTH 270 0
DWIDTH 6 0
BBX 6 21 0 0
BITMAP
E0
60
30
10
08
7C
7C
60
60
60
60
7C
7C
60
60
60
60
60
60
7C
7C
ENDCHAR
STARTCHAR 00C9
ENCODING 201
SWIDTH 270 0
DWIDTH 6 0
BBX 5 21 1 0
BITMAP
18
30
60
40
00
F8
F8
C0
C0
C0
C0
F8
F8
C0
C0
C0
C0
C0
C0
F8
F8
ENDCHAR
STARTCHAR 00CA
ENCODING 202
SWIDTH 270 0
DWIDTH 6 0
BBX 6 21 0 0
BITMAP
30
38
68
4C
80
7C
7C
60
60
60
60
7C
7C
60
60
60
60
60
60
7C
7C
ENDCHAR
STARTCHAR 00CB
ENCODING 203
SWIDTH 270 0
DWIDTH 6 0
BBX 5 20 1 0
BITMAP
D8
D8
00
00
F8
F8
C0
C0
C0
C0
F8
F8
C0
C0
C0
C0
C0
C0
F8
F8
ENDCHAR
STARTCHAR 00CC
ENCODING 204
SWIDTH 180 0
DWIDTH 4 0
BBX 4 21 -1 0
BITMAP
C0
60
30
10
00
30
30
30
30
30
30
30
30
30
30
30
30
30
30
30
30
ENDCHAR
STARTCHAR 00CD
ENCODING 205
SWIDTH 180 0
DWIDTH 4 0
BBX 5 21 0 0
BITMAP
38
30
60
40
80
60
60
60
60
60
60
60
60
60
60
60
60
60
60
60
60
ENDCHAR
STARTCHAR 00CE
ENCODING 206
SWIDTH 180 0
DWIDTH 4 0
BBX 6 21 -1 0
BITMAP
30
70
58
C8
04
30
30
30
30
30
30
30
30
30
30
30
30
30
30
30
30
ENDCHAR
STARTCHAR 00CF
ENCODING 207
SWIDTH 180 0
DWIDTH 4 0
BBX 5 20 -1 0
BITMAP
D8
D8
00
00
30
30
30
30
30
30
30
30
30
30
30
30
30
30
30
30
ENDCHAR
STARTCHAR 00D0
ENCODING 208
SWIDTH 315 0
DWIDTH 7 0
BBX 7 16 0 0
BITMAP
7C
7C
6E
6E
6E
6E
6E
FE
FE
6E
6E
6E
6E
6E
7C
7C
ENDCHAR
STARTCHAR 00D1
ENCODING 209
SWIDTH 405 0
DWIDTH 9 0
BBX 7 20 1 0
BITMAP
24
7C
80
00
E6
E6
F6
F6
F6
F6
F6
F6
FE
DE
DE
DE
DE
DE
DE
DE
ENDCHAR
STARTCHAR 00D2
ENCODING 210
SWIDTH 315 0
DWIDTH 7 0
BBX 6 21 1 0
BITMAP
C0
60
20
30
00
78
FC
DC
DC
DC
DC
DC
DC
DC
DC
DC
DC
DC
DC
FC
78
ENDCHAR
STARTCHAR 00D3
ENCODING 211
SWIDTH 315 0
DWIDTH 7 0
BBX 6 21 1 0
BITMAP
18
18
30
20
40
78
FC
DC
DC
DC
DC
DC
DC
DC
DC
DC
DC
DC
DC
FC
78
ENDCHAR
STARTCHAR 00D4
ENCODING 212
SWIDTH 315 0
DWIDTH 7 0
BBX 6 21 1 0
BITMAP
30
70
58
C8
04
78
FC
DC
DC
DC
DC
DC
DC
DC
DC
DC
DC
DC
DC
FC
78
ENDCHAR
STARTCHAR 00D5
ENCODING 213
SWIDTH 315 0
DWIDTH 7 0
BBX 6 20 1 0
BITMAP
64
F8
80
00
78
FC
DC
DC
DC
DC
DC
DC
DC
DC
DC
DC
DC
DC
FC
78
ENDCHAR
STARTCHAR 00D6
ENCODING 214
SWIDTH 315 0
DWIDTH 7 0
BBX 6 20 1 0
BITMAP
D8
D8
00
00
78
FC
DC
DC
DC
DC
DC
DC
DC
DC
DC
DC
DC
DC
FC
78
ENDCHAR
STARTCHAR 00D7
ENCODING 215
SWIDTH 495 0
DWIDTH 11 0
BBX 11 12 0 0
BITMAP
8040
C060
60C0
3180
1B00
0E00
0E00
1B00
3180
60C0
C060
4040
ENDCHAR
STARTCHAR 00D8
ENCODING 216
SWIDTH 315 0
DWIDTH 7 0
BBX 7 17 0 -1
BITMAP
3E
7E
6E
6E
6E
6E
6E
7E
7E
7E
6E
6E
6E
6E
7E
FC
80
ENDCHAR
STARTCHAR 00D9
ENCODING 217
SWIDTH 315 0
DWIDTH 7 0
BBX 6 21 1 0
BITMAP
C0
60
20
10
00
DC
DC
DC
DC
DC
DC
DC
DC
DC
DC
DC
DC
DC
DC
FC
78
ENDCHAR
STARTCHAR 00DA
ENCODING 218
SWIDTH 315 0
DWIDTH 7 0
BBX 6 21 1 0
BITMAP
18
10
30
20
40
DC
DC
DC
DC
DC
DC
DC
DC
DC
DC
DC
DC
DC
DC
FC
78
ENDCHAR
STARTCHAR 00DB
ENCODING 219
SWIDTH 315 0
DWIDTH 7 0
BBX 6 21 1 0
BITMAP
30
70
58
88
04
DC
DC
DC
DC
DC
DC
DC
DC
DC
DC
DC
DC
DC
DC
FC
78
ENDCHAR
STARTCHAR 00DC
ENCODING 220
SWIDTH 315 0
DWIDTH 7 0
BBX 6 20 1 0
BITMAP
D8
D8
00
00
DC
DC
DC
DC
DC
DC
DC
DC
DC
DC
DC
DC
DC
DC
FC
78
ENDCHAR
STARTCHAR 00DD
ENCODING 221
SWIDTH 315 0
DWIDTH 7 0
BBX 7 21 0 0
BITMAP
0C
08
18
10
20
E6
E6
66
6C
6C
7C
3C
38
38
38
38
38
38
38
38
38
ENDCHAR
STARTCHAR 00DE
ENCODING 222
SWIDTH 315 0
DWIDTH 7 0
BBX 6 16 1 0
BITMAP
C0
C0
C0
F8
F8
DC
DC
DC
DC
DC
DC
F8
C0
C0
C0
C0
ENDCHAR
STARTCHAR 00DF
ENCODING 223
SWIDTH 270 0
DWIDTH 6 0
BBX 6 16 0 0
BITMAP
78
7C
FC
FC
FC
FC
F8
FC
EC
EC
EC
EC
EC
EC
FC
F8
ENDCHAR
STARTCHAR 00E0
ENCODING 224
SWIDTH 270 0
DWIDTH 6 0
BBX 6 18 0 0
BITMAP
E0
20
30
10
08
78
7C
EC
FC
FC
3C
7C
EC
EC
EC
EC
FC
6C
ENDCHAR
STARTCHAR 00E1
ENCODING 225
SWIDTH 270 0
DWIDTH 6 0
BBX 6 18 0 0
BITMAP
1C
18
30
20
00
78
7C
EC
FC
FC
3C
7C
EC
EC
EC
EC
FC
6C
ENDCHAR
STARTCHAR 00E2
ENCODING 226
SWIDTH 270 0
DWIDTH 6 0
BBX 6 18 0 0
BITMAP
30
78
48
C4
00
78
7C
EC
FC
FC
3C
7C
EC
EC
EC
EC
FC
6C
ENDCHAR
STARTCHAR 00E3
ENCODING 227
SWIDTH 270 0
DWIDTH 6 0
BBX 6 17 0 0
BITMAP
7C
98
00
00
78
7C
EC
FC
FC
3C
7C
EC
EC
EC
EC
FC
6C
ENDCHAR
STARTCHAR 00E4
ENCODING 228
SWIDTH 270 0
DWIDTH 6 0
BBX 6 17 0 0
BITMAP
6C
6C
00
00
78
7C
EC
FC
FC
3C
7C
EC
EC
EC
EC
FC
6C
ENDCHAR
STARTCHAR 00E5
ENCODING 229
SWIDTH 270 0
DWIDTH 6 0
BBX 6 18 0 0
BITMAP
30
48
48
30
00
78
7C
EC
FC
FC
3C
7C
EC
EC
EC
EC
FC
6C
ENDCHAR
STARTCHAR 00E6
ENCODING 230
SWIDTH 405 0
DWIDTH 9 0
BBX 8 13 1 0
BITMAP
FE
FF
DB
DB
FB
7F
DF
D8
DB
DB
DB
FF
DE
ENDCHAR
STARTCHAR 00E7
ENCODING 231
SWIDTH 270 0
DWIDTH 6 0
BBX 6 18 0 -5
BITMAP
78
7C
EC
EC
EC
E0
E0
E0
EC
EC
EC
7C
78
20
38
08
08
70
ENDCHAR
STARTCHAR 00E8
ENCODING 232
SWIDTH 270 0
DWIDTH 6 0
BBX 6 18 0 0
BITMAP
E0
20
30
10
08
78
7C
EC
EC
EC
FC
FC
E0
EC
EC
EC
7C
78
ENDCHAR
STARTCHAR 00E9
ENCODING 233
SWIDTH 270 0
DWIDTH 6 0
BBX 6 18 0 0
BITMAP
1C
18
30
20
00
78
7C
EC
EC
EC
FC
FC
E0
EC
EC
EC
7C
78
ENDCHAR
STARTCHAR 00EA
ENCODING 234
SWIDTH 270 0
DWIDTH 6 0
BBX 6 18 0 0
BITMAP
30
78
48
C4
00
78
7C
EC
EC
EC
FC
FC
E0
EC
EC
EC
7C
78
ENDCHAR
STARTCHAR 00EB
ENCODING 235
SWIDTH 270 0
DWIDTH 6 0
BBX 6 17 0 0
BITMAP
6C
6C
00
00
78
6C
EC
EC
EC
FC
FC
E0
EC
EC
EC
7C
78
ENDCHAR
STARTCHAR 00EC
ENCODING 236
SWIDTH 135 0
DWIDTH 3 0
BBX 4 18 -1 0
BITMAP
C0
60
20
10
00
30
30
30
30
30
30
30
30
30
30
30
30
30
ENDCHAR
STARTCHAR 00ED
ENCODING 237
SWIDTH 135 0
DWIDTH 3 0
BBX 4 18 0 0
BITMAP
30
60
40
C0
00
60
60
60
60
60
60
60
60
60
60
60
60
60
ENDCHAR
STARTCHAR 00EE
ENCODING 238
SWIDTH 135 0
DWIDTH 3 0
BBX 5 18 -1 0
BITMAP
30
70
D8
88
00
30
30
30
30
30
30
30
30
30
30
30
30
30
ENDCHAR
STARTCHAR 00EF
ENCODING 239
SWIDTH 135 0
DWIDTH 3 0
BBX 5 17 -1 0
BITMAP
D8
D8
00
00
30
30
30
30
30
30
30
30
30
30
30
30
30
ENDCHAR
STARTCHAR 00F0
ENCODING 240
SWIDTH 270 0
DWIDTH 6 0
BBX 6 16 0 0
BITMAP
E0
78
30
78
7C
EC
EC
EC
EC
EC
EC
EC
EC
EC
7C
78
ENDCHAR
STARTCHAR 00F1
ENCODING 241
SWIDTH 270 0
DWIDTH 6 0
BBX 6 17 0 0
BITMAP
7C
98
00
00
F8
FC
EC
EC
EC
EC
EC
EC
EC
EC
EC
EC
EC
ENDCHAR
STARTCHAR 00F2
ENCODING 242
SWIDTH 270 0
DWIDTH 6 0
BBX 6 18 0 0
BITMAP
E0
20
30
10
08
78
7C
EC
EC
EC
EC
EC
EC
EC
EC
EC
7C
78
ENDCHAR
STARTCHAR 00F3
ENCODING 243
SWIDTH 270 0
DWIDTH 6 0
BBX 6 18 0 0
BITMAP
1C
18
30
20
00
78
7C
EC
EC
EC
EC
EC
EC
EC
EC
EC
7C
78
ENDCHAR
STARTCHAR 00F4
ENCODING 244
SWIDTH 270 0
DWIDTH 6 0
BBX 6 18 0 0
BITMAP
30
78
48
C4
00
78
7C
EC
EC
EC
EC
EC
EC
EC
EC
EC
7C
78
ENDCHAR
STARTCHAR 00F5
ENCODING 245
SWIDTH 270 0
DWIDTH 6 0
BBX 6 17 0 0
BITMAP
7C
98
00
00
78
7C
EC
EC
EC
EC
EC
EC
EC
EC
EC
7C
78
ENDCHAR
STARTCHAR 00F6
ENCODING 246
SWIDTH 270 0
DWIDTH 6 0
BBX 6 17 0 0
BITMAP
6C
6C
00
00
78
7C
EC
EC
EC
EC
EC
EC
EC
EC
EC
7C
78
ENDCHAR
STARTCHAR 00F7
ENCODING 247
SWIDTH 495 0
DWIDTH 11 0
BBX 11 13 0 0
BITMAP
0E00
0E00
0E00
0000
0000
0000
FFE0
FFE0
0000
0000
0E00
0E00
0E00
ENDCHAR
STARTCHAR 00F8
ENCODING 248
SWIDTH 270 0
DWIDTH 6 0
BBX 6 15 0 -1
BITMAP
04
7C
7C
EC
EC
FC
FC
FC
EC
EC
EC
EC
FC
F8
80
ENDCHAR
STARTCHAR 00F9
ENCODING 249
SWIDTH 270 0
DWIDTH 6 0
BBX 6 18 0 0
BITMAP
E0
20
30
10
08
EC
EC
EC
EC
EC
EC
EC
EC
EC
EC
EC
FC
6C
ENDCHAR
STARTCHAR 00FA
ENCODING 250
SWIDTH 270 0
DWIDTH 6 0
BBX 6 18 0 0
BITMAP
1C
18
30
20
00
EC
EC
EC
EC
EC
EC
EC
EC
EC
EC
EC
FC
6C
ENDCHAR
STARTCHAR 00FB
ENCODING 251
SWIDTH 270 0
DWIDTH 6 0
BBX 6 18 0 0
BITMAP
30
78
48
C4
00
EC
EC
EC
EC
EC
EC
EC
EC
EC
EC
EC
FC
6C
ENDCHAR
STARTCHAR 00FC
ENCODING 252
SWIDTH 270 0
DWIDTH 6 0
BBX 6 17 0 0
BITMAP
6C
6C
00
00
EC
EC
EC
EC
EC
EC
EC
EC
EC
EC
EC
FC
6C
ENDCHAR
STARTCHAR 00FD
ENCODING 253
SWIDTH 270 0
DWIDTH 6 0
BBX 6 21 0 -3
BITMAP
1C
18
30
20
00
CC
CC
CC
6C
78
78
78
78
78
78
38
30
30
30
70
70
ENDCHAR
STARTCHAR 00FE
ENCODING 254
SWIDTH 270 0
DWIDTH 6 0
BBX 6 19 0 -3
BITMAP
E0
E0
E0
F8
FC
EC
EC
EC
EC
EC
EC
EC
EC
EC
FC
F8
E0
E0
E0
ENDCHAR
STARTCHAR 00FF
ENCODING 255
SWIDTH 270 0
DWIDTH 6 0
BBX 6 20 0 -3
BITMAP
6C
6C
00
00
CC
CC
CC
6C
78
78
78
78
78
78
38
30
30
30
70
70
ENDCHAR
STARTCHAR 0131
ENCODING 305
SWIDTH 135 0
DWIDTH 3 0
BBX 2 13 1 0
BITMAP
C0
C0
C0
C0
C0
C0
C0
C0
C0
C0
C0
C0
C0
ENDCHAR
STARTCHAR 0141
ENCODING 321
SWIDTH 270 0
DWIDTH 6 0
BBX 6 16 0 0
BITMAP
60
60
60
60
60
68
78
70
E0
E0
60
60
60
60
7C
7C
ENDCHAR
STARTCHAR 0142
ENCODING 322
SWIDTH 135 0
DWIDTH 3 0
BBX 4 16 0 0
BITMAP
60
60
60
60
70
70
70
60
E0
E0
60
60
60
60
60
60
ENDCHAR
STARTCHAR 0152
ENCODING 338
SWIDTH 450 0
DWIDTH 10 0
BBX 9 16 1 0
BITMAP
7F80
FF80
DC00
DC00
DC00
DC00
DF80
DF80
DC00
DC00
DC00
DC00
DC00
DC00
FF80
FF80
ENDCHAR
STARTCHAR 0153
ENCODING 339
SWIDTH 405 0
DWIDTH 9 0
BBX 8 13 1 0
BITMAP
FE
FF
DB
DB
DB
DF
DF
D8
DB
DB
DB
FF
FE
ENDCHAR
STARTCHAR 0160
ENCODING 352
SWIDTH 315 0
DWIDTH 7 0
BBX 6 21 1 0
BITMAP
8C
C8
50
70
00
78
FC
DC
DC
DC
DC
E0
70
38
18
DC
DC
DC
DC
FC
78
ENDCHAR
STARTCHAR 0161
ENCODING 353
SWIDTH 270 0
DWIDTH 6 0
BBX 6 18 0 0
BITMAP
CC
48
38
30
00
78
7C
EC
EC
6C
70
38
1C
FC
EC
EC
7C
78
ENDCHAR
STARTCHAR 0178
ENCODING 376
SWIDTH 315 0
DWIDTH 7 0
BBX 7 20 0 0
BITMAP
6C
6C
00
00
E6
66
6E
6C
7C
7C
3C
38
38
38
38
38
38
38
38
38
ENDCHAR
STARTCHAR 017D
ENCODING 381
SWIDTH 270 0
DWIDTH 6 0
BBX 6 21 0 0
BITMAP
84
48
78
30
00
F8
F8
18
18
38
38
30
30
30
70
70
60
60
E0
F8
F8
ENDCHAR
STARTCHAR 017E
ENCODING 382
SWIDTH 225 0
DWIDTH 5 0
BBX 5 18 0 0
BITMAP
88
D8
50
20
00
F8
F8
38
30
30
30
60
60
60
E0
C0
F8
F8
ENDCHAR
STARTCHAR 0192
ENCODING 402
SWIDTH 315 0
DWIDTH 7 0
BBX 7 19 0 -3
BITMAP
0E
0E
0C
1C
1C
7E
7E
18
18
38
38
30
30
30
30
70
70
E0
E0
ENDCHAR
STARTCHAR 02C6
ENCODING 710
SWIDTH 135 0
DWIDTH 3 0
BBX 5 4 -1 14
BITMAP
30
70
D8
88
ENDCHAR
STARTCHAR 02C7
ENCODING 711
SWIDTH 135 0
DWIDTH 3 0
BBX 5 4 -1 14
BITMAP
88
58
70
30
ENDCHAR
STARTCHAR 02D8
ENCODING 728
SWIDTH 135 0
DWIDTH 3 0
BBX 5 3 -1 14
BITMAP
88
F8
70
ENDCHAR
STARTCHAR 02D9
ENCODING 729
SWIDTH 135 0
DWIDTH 3 0
BBX 2 2 1 15
BITMAP
C0
C0
ENDCHAR
STARTCHAR 02DA
ENCODING 730
SWIDTH 135 0
DWIDTH 3 0
BBX 4 4 0 14
BITMAP
E0
A0
B0
E0
ENDCHAR
STARTCHAR 02DB
ENCODING 731
SWIDTH 135 0
DWIDTH 3 0
BBX 5 5 -1 -5
BITMAP
38
60
40
C0
78
ENDCHAR
STARTCHAR 02DC
ENCODING 732
SWIDTH 135 0
DWIDTH 3 0
BBX 6 2 -1 15
BITMAP
7C
B8
ENDCHAR
STARTCHAR 02DD
ENCODING 733
SWIDTH 135 0
DWIDTH 3 0
BBX 7 4 -1 14
BITMAP
6E
4C
D8
90
ENDCHAR
STARTCHAR 2013
ENCODING 8211
SWIDTH 495 0
DWIDTH 11 0
BBX 11 2 0 6
BITMAP
FFE0
FFE0
ENDCHAR
STARTCHAR 2014
ENCODING 8212
SWIDTH 990 0
DWIDTH 22 0
BBX 22 2 0 6
BITMAP
FFFFFC
FFFFFC
ENDCHAR
STARTCHAR 2018
ENCODING 8216
SWIDTH 180 0
DWIDTH 4 0
BBX 3 5 0 11
BITMAP
C0
60
60
60
20
ENDCHAR
STARTCHAR 2019
ENCODING 8217
SWIDTH 180 0
DWIDTH 4 0
BBX 2 5 1 11
BITMAP
C0
C0
C0
80
80
ENDCHAR
STARTCHAR 201A
ENCODING 8218
SWIDTH 180 0
DWIDTH 4 0
BBX 2 5 1 -2
BITMAP
C0
C0
C0
80
80
ENDCHAR
STARTCHAR 201C
ENCODING 8220
SWIDTH 315 0
DWIDTH 7 0
BBX 6 5 0 11
BITMAP
F8
6C
6C
6C
24
ENDCHAR
STARTCHAR 201D
ENCODING 8221
SWIDTH 315 0
DWIDTH 7 0
BBX 6 5 1 11
BITMAP
7C
D8
D8
D8
90
ENDCHAR
STARTCHAR 201E
ENCODING 8222
SWIDTH 315 0
DWIDTH 7 0
BBX 6 5 1 -2
BITMAP
7C
D8
D8
D8
90
ENDCHAR
STARTCHAR 2020
ENCODING 8224
SWIDTH 315 0
DWIDTH 7 0
BBX 7 19 0 -3
BITMAP
18
18
18
18
18
FE
FE
18
18
18
18
18
18
18
18
18
18
18
18
ENDCHAR
STARTCHAR 2021
ENCODING 8225
SWIDTH 315 0
DWIDTH 7 0
BBX 7 19 0 -3
BITMAP
18
18
18
18
18
FE
FE
18
18
18
18
18
FE
FE
18
18
18
18
18
ENDCHAR
STARTCHAR 2022
ENCODING 8226
SWIDTH 495 0
DWIDTH 11 0
BBX 7 8 2 4
BITMAP
38
7C
FE
FE
FE
FE
FE
3C
ENDCHAR
STARTCHAR 2026
ENCODING 8230
SWIDTH 990 0
DWIDTH 22 0
BBX 17 2 3 0
BITMAP
C18380
C18380
ENDCHAR
STARTCHAR 2030
ENCODING 8240
SWIDTH 765 0
DWIDTH 17 0
BBX 16 16 1 0
BITMAP
F100
F100
D200
D200
D200
D400
D400
F7CE
FBDF
0ADB
0ADB
12DB
12DB
12DB
33DF
238E
ENDCHAR
STARTCHAR 2039
ENCODING 8249
SWIDTH 180 0
DWIDTH 4 0
BBX 3 9 1 2
BITMAP
20
60
E0
C0
80
C0
C0
60
20
ENDCHAR
STARTCHAR 203A
ENCODING 8250
SWIDTH 180 0
DWIDTH 4 0
BBX 3 9 1 2
BITMAP
80
80
C0
E0
60
60
C0
80
80
ENDCHAR
STARTCHAR 2044
ENCODING 8260
SWIDTH 180 0
DWIDTH 4 0
BBX 11 16 -4 0
BITMAP
0020
0040
0040
0080
0180
0100
0200
0200
0400
0C00
0800
1000
3000
2000
4000
C000
ENDCHAR
STARTCHAR 2122
ENCODING 8482
SWIDTH 990 0
DWIDTH 22 0
BBX 20 9 1 7
BITMAP
FF3870
FF3870
1838F0
182CF0
182DB0
1825B0
182730
182730
182330
ENDCHAR
STARTCHAR 2212
ENCODING 8722
SWIDTH 495 0
DWIDTH 11 0
BBX 11 2 0 5
BITMAP
FFE0
FFE0
ENDCHAR
STARTCHAR 2219
ENCODING 8729
SWIDTH 180 0
DWIDTH 4 0
BBX 2 2 1 5
BITMAP
C0
C0
ENDCHAR
STARTCHAR F001
ENCODING 61441
SWIDTH 315 0
DWIDTH 7 0
BBX 7 16 0 0
BITMAP
7E
6E
60
FE
FE
6E
6E
6E
6E
6E
6E
6E
6E
6E
6E
6E
ENDCHAR
STARTCHAR F002
ENCODING 61442
SWIDTH 315 0
DWIDTH 7 0
BBX 7 16 0 0
BITMAP
7E
7E
6E
FE
FE
6E
6E
6E
6E
6E
6E
6E
6E
6E
6E
6E
ENDCHAR
ENDFONT
